<svg xmlns="http://www.w3.org/2000/svg" width="512" height="512" viewBox="0 0 512 512" version="1.1">
	<path d="M 239.241 47.936 C 235.276 50.425, 232.009 55.532, 232.004 59.250 C 232.001 61.594, 231.587 62, 229.200 62 C 225.118 62, 224 63.720, 224 70 C 224 76.280, 225.118 78, 229.200 78 C 231.957 78, 232 78.093, 232 84.025 L 232 90.051 247.750 89.775 L 263.500 89.500 263.799 83.783 L 264.098 78.066 252.799 77.783 L 241.500 77.500 241.206 70.250 L 240.912 63 251.988 63 C 260.658 63, 263.182 62.690, 263.610 61.573 C 264.530 59.176, 260.449 51.456, 256.941 48.958 C 252.275 45.636, 243.694 45.140, 239.241 47.936 M 180 89.694 C 176.780 90.845, 176 93.365, 176 102.626 C 176 115.069, 176.736 116.796, 182.203 117.190 L 186.500 117.500 186.792 125.250 L 187.084 133 183.542 133 C 177.283 133, 176 135.389, 176 147.045 C 176 156.378, 176.174 157.265, 178.455 159.545 C 180.252 161.343, 181.993 162, 184.955 162 L 189 162 189 170.342 L 189 178.683 184.750 179.954 C 168.066 184.944, 155.704 198.994, 153.035 216 C 151.648 224.841, 151.648 419.159, 153.035 428 C 155.992 446.840, 171.167 462.014, 190 464.962 C 194.145 465.611, 216.068 465.785, 250.500 465.443 C 310.859 464.842, 312.563 464.667, 322.849 458.019 C 332.664 451.675, 339.727 440.983, 341.992 429.040 C 343.457 421.315, 343.358 221.800, 341.885 214.799 C 338.496 198.684, 323.906 183.099, 309.750 180.473 L 306 179.777 306 170.389 L 306 161 262.071 161 C 223.470 161, 217.952 160.809, 216.571 159.429 C 215.337 158.194, 215 155.544, 215 147.084 C 215 137.916, 215.273 136.063, 216.829 134.655 C 218.473 133.167, 223.168 133, 263.371 133 L 308.084 133 307.792 125.250 L 307.500 117.500 262.500 117.247 C 221.611 117.017, 217.386 116.840, 216.250 115.306 C 214.328 112.710, 214.565 94.066, 216.557 91.223 L 218.113 89 199.807 89.079 C 189.738 89.122, 180.825 89.399, 180 89.694 M 319 104.389 L 319 109 328.550 109 C 339.146 109, 342.152 110.015, 346.355 115.010 C 353.753 123.802, 351.019 136.908, 340.750 141.879 C 337.316 143.541, 334.490 144, 327.684 144 L 319 144 319 148 L 319 152 329.250 151.990 C 341.317 151.979, 347.319 149.818, 352.882 143.481 C 357.520 138.200, 359.004 134.134, 358.978 126.782 C 358.942 116.409, 353.592 107.515, 344.500 102.712 C 341.352 101.049, 338.210 100.511, 329.750 100.189 L 319 99.779 319 104.389 M 241.969 280.750 C 238.544 285.079, 223.468 316.089, 220.596 324.710 C 216.285 337.656, 217.267 346.886, 223.880 355.556 C 234.193 369.078, 254.122 370.889, 266.834 359.459 C 276.290 350.957, 278.871 338.719, 274.099 325 C 271.832 318.481, 256.856 287.345, 253.056 281.250 C 250.332 276.882, 245.212 276.651, 241.969 280.750" stroke="none" fill="black" fill-rule="evenodd"/>
</svg>